<?xml version="1.0" standalone="no"?><!DOCTYPE svg PUBLIC "-//W3C//DTD SVG 1.1//EN" "http://www.w3.org/Graphics/SVG/1.1/DTD/svg11.dtd"><svg t="1578989553690" class="icon" viewBox="0 0 1024 1024" version="1.1" xmlns="http://www.w3.org/2000/svg" p-id="2575" xmlns:xlink="http://www.w3.org/1999/xlink" width="32" height="32"><defs><style type="text/css"></style></defs><path d="M840 528c-6.4-9.6-16-16-27.2-16H590.4c-11.2 0-22.4 6.4-27.2 16l-110.4 192c-6.4 9.6-6.4 22.4 0 32l110.4 192c6.4 9.6 16 16 27.2 16h222.4c11.2 0 22.4-6.4 27.2-16l110.4-192c6.4-9.6 6.4-22.4 0-32l-110.4-192z m-46.4 368H609.6l-92.8-160 92.8-160h184l92.8 160-92.8 160z" fill="#211B13" p-id="2576"></path><path d="M702.4 624c-62.4 0-112 49.6-112 112s49.6 112 112 112 112-49.6 112-112-51.2-112-112-112z m0 160c-27.2 0-48-20.8-48-48s20.8-48 48-48 48 20.8 48 48-22.4 48-48 48z" fill="#211B13" p-id="2577"></path><path d="M864 64H160c-52.8 0-96 43.2-96 96v704c0 52.8 43.2 96 96 96h256c17.6 0 32-14.4 32-32s-14.4-32-32-32H160c-17.6 0-32-14.4-32-32V160c0-17.6 14.4-32 32-32h704c17.6 0 32 14.4 32 32v257.6c0 17.6 14.4 32 32 32s32-14.4 32-32V160c0-52.8-43.2-96-96-96z" fill="#211B13" p-id="2578"></path><path d="M544 256c0-17.6-14.4-32-32-32H256c-17.6 0-32 14.4-32 32v256c0 17.6 14.4 32 32 32s32-14.4 32-32V288h224c17.6 0 32-14.4 32-32z" fill="#FFB243" p-id="2579"></path></svg>